<mxfile host="65bd71144e">
    <diagram id="h0gWM__qEogadQGdMKrz" name="Page-1">
        <mxGraphModel dx="1300" dy="1022" grid="1" gridSize="10" guides="1" tooltips="1" connect="1" arrows="1" fold="1" page="0" pageScale="1" pageWidth="850" pageHeight="1100" background="none" math="0" shadow="0">
            <root>
                <mxCell id="0"/>
                <mxCell id="1" parent="0"/>
                <mxCell id="-bhdE2tVJ8x3mW5nTVf4-1" value="" style="rounded=0;whiteSpace=wrap;html=1;strokeColor=#FF0000;fillColor=none;" parent="1" vertex="1">
                    <mxGeometry width="1280" height="80" as="geometry"/>
                </mxCell>
                <mxCell id="2" value="" style="whiteSpace=wrap;html=1;fillColor=none;" vertex="1" parent="1">
                    <mxGeometry x="905" y="10" width="360" height="60" as="geometry"/>
                </mxCell>
                <mxCell id="-bhdE2tVJ8x3mW5nTVf4-2" value="Mitchell George" style="rounded=0;whiteSpace=wrap;html=1;fontSize=36;strokeColor=#FFFFFF;fillColor=none;" parent="1" vertex="1">
                    <mxGeometry x="20" y="15" width="270" height="50" as="geometry"/>
                </mxCell>
                <mxCell id="-bhdE2tVJ8x3mW5nTVf4-3" value="About Me" style="rounded=0;whiteSpace=wrap;html=1;fontSize=20;strokeColor=#FFFFFF;fillColor=none;" parent="1" vertex="1">
                    <mxGeometry x="922.5" y="25" width="100" height="30" as="geometry"/>
                </mxCell>
                <mxCell id="-bhdE2tVJ8x3mW5nTVf4-4" value="Projects" style="rounded=0;whiteSpace=wrap;html=1;fontSize=20;strokeColor=#FFFFFF;fillColor=none;" parent="1" vertex="1">
                    <mxGeometry x="1052.5" y="25" width="90" height="30" as="geometry"/>
                </mxCell>
                <mxCell id="-bhdE2tVJ8x3mW5nTVf4-5" value="Contact" style="rounded=0;whiteSpace=wrap;html=1;fontSize=20;strokeColor=#FFFFFF;fillColor=none;" parent="1" vertex="1">
                    <mxGeometry x="1167.5" y="25" width="80" height="30" as="geometry"/>
                </mxCell>
                <mxCell id="-bhdE2tVJ8x3mW5nTVf4-7" value="" style="rounded=0;whiteSpace=wrap;html=1;fontSize=36;strokeColor=#FF0000;fillColor=none;" parent="1" vertex="1">
                    <mxGeometry y="80" width="1280" height="200" as="geometry"/>
                </mxCell>
                <mxCell id="-bhdE2tVJ8x3mW5nTVf4-8" value="" style="rounded=0;whiteSpace=wrap;html=1;fontSize=36;strokeColor=#FF0000;fillColor=none;" parent="1" vertex="1">
                    <mxGeometry y="280" width="1280" height="500" as="geometry"/>
                </mxCell>
                <mxCell id="-bhdE2tVJ8x3mW5nTVf4-9" value="" style="rounded=0;whiteSpace=wrap;html=1;fontSize=36;strokeColor=#FF0000;fillColor=none;" parent="1" vertex="1">
                    <mxGeometry y="780" width="1280" height="100" as="geometry"/>
                </mxCell>
                <mxCell id="-bhdE2tVJ8x3mW5nTVf4-10" value="Footer" style="rounded=0;whiteSpace=wrap;html=1;strokeColor=#FF0000;fontSize=20;fillColor=none;" parent="1" vertex="1">
                    <mxGeometry y="880" width="1280" height="80" as="geometry"/>
                </mxCell>
                <mxCell id="-bhdE2tVJ8x3mW5nTVf4-11" value="About Me&lt;span style=&quot;color: rgba(0 , 0 , 0 , 0) ; font-family: monospace ; font-size: 0px&quot;&gt;%3CmxGraphModel%3E%3Croot%3E%3CmxCell%20id%3D%220%22%2F%3E%3CmxCell%20id%3D%221%22%20parent%3D%220%22%2F%3E%3CmxCell%20id%3D%222%22%20value%3D%22%22%20style%3D%22rounded%3D0%3BwhiteSpace%3Dwrap%3Bhtml%3D1%3BstrokeColor%3D%23FF0000%3B%22%20vertex%3D%221%22%20parent%3D%221%22%3E%3CmxGeometry%20width%3D%221280%22%20height%3D%2280%22%20as%3D%22geometry%22%2F%3E%3C%2FmxCell%3E%3C%2Froot%3E%3C%2FmxGraphModel%3E&lt;/span&gt;" style="rounded=0;whiteSpace=wrap;html=1;fontSize=36;strokeColor=#FFFFFF;fillColor=none;" parent="1" vertex="1">
                    <mxGeometry x="20" y="100" width="400" height="160" as="geometry"/>
                </mxCell>
                <mxCell id="-bhdE2tVJ8x3mW5nTVf4-12" value="Projects" style="rounded=0;whiteSpace=wrap;html=1;fontSize=36;strokeColor=#FFFFFF;fillColor=none;" parent="1" vertex="1">
                    <mxGeometry x="20" y="300" width="400" height="460" as="geometry"/>
                </mxCell>
                <mxCell id="-bhdE2tVJ8x3mW5nTVf4-13" value="Contact" style="rounded=0;whiteSpace=wrap;html=1;fontSize=36;strokeColor=#FFFFFF;fillColor=none;" parent="1" vertex="1">
                    <mxGeometry x="20" y="800" width="400" height="60" as="geometry"/>
                </mxCell>
                <mxCell id="-bhdE2tVJ8x3mW5nTVf4-14" value="text" style="rounded=0;whiteSpace=wrap;html=1;fontSize=20;strokeColor=#FFFFFF;fillColor=none;" parent="1" vertex="1">
                    <mxGeometry x="450" y="100" width="810" height="160" as="geometry"/>
                </mxCell>
                <mxCell id="-bhdE2tVJ8x3mW5nTVf4-15" value="" style="rounded=0;whiteSpace=wrap;html=1;fontSize=36;strokeColor=#FFFFFF;fillColor=none;" parent="1" vertex="1">
                    <mxGeometry x="450" y="300" width="810" height="460" as="geometry"/>
                </mxCell>
                <mxCell id="-bhdE2tVJ8x3mW5nTVf4-16" value="" style="rounded=0;whiteSpace=wrap;html=1;fontSize=36;strokeColor=#FFFFFF;fillColor=none;" parent="1" vertex="1">
                    <mxGeometry x="450" y="800" width="810" height="60" as="geometry"/>
                </mxCell>
                <mxCell id="-bhdE2tVJ8x3mW5nTVf4-17" value="Project" style="rounded=0;whiteSpace=wrap;html=1;fontSize=20;strokeColor=#FFFFFF;fillColor=none;" parent="1" vertex="1">
                    <mxGeometry x="460" y="535" width="390" height="100" as="geometry"/>
                </mxCell>
                <mxCell id="-bhdE2tVJ8x3mW5nTVf4-18" value="Project" style="rounded=0;whiteSpace=wrap;html=1;fontSize=20;strokeColor=#FFFFFF;fillColor=none;" parent="1" vertex="1">
                    <mxGeometry x="460" y="310" width="790" height="210" as="geometry"/>
                </mxCell>
                <mxCell id="-bhdE2tVJ8x3mW5nTVf4-19" value="Project" style="rounded=0;whiteSpace=wrap;html=1;fontSize=20;strokeColor=#FFFFFF;fillColor=none;" parent="1" vertex="1">
                    <mxGeometry x="860" y="535" width="390" height="100" as="geometry"/>
                </mxCell>
                <mxCell id="-bhdE2tVJ8x3mW5nTVf4-20" value="Project" style="rounded=0;whiteSpace=wrap;html=1;fontSize=20;strokeColor=#FFFFFF;fillColor=none;" parent="1" vertex="1">
                    <mxGeometry x="460" y="650" width="390" height="100" as="geometry"/>
                </mxCell>
                <mxCell id="-bhdE2tVJ8x3mW5nTVf4-21" value="Project" style="rounded=0;whiteSpace=wrap;html=1;fontSize=20;strokeColor=#FFFFFF;fillColor=none;" parent="1" vertex="1">
                    <mxGeometry x="860" y="650" width="390" height="100" as="geometry"/>
                </mxCell>
                <mxCell id="-bhdE2tVJ8x3mW5nTVf4-22" value="Resume" style="rounded=0;whiteSpace=wrap;html=1;fontSize=20;strokeColor=#FFFFFF;fillColor=none;" parent="1" vertex="1">
                    <mxGeometry x="502.5" y="815" width="90" height="30" as="geometry"/>
                </mxCell>
                <mxCell id="-bhdE2tVJ8x3mW5nTVf4-23" value="Email" style="rounded=0;whiteSpace=wrap;html=1;fontSize=20;strokeColor=#FFFFFF;fillColor=none;" parent="1" vertex="1">
                    <mxGeometry x="647.5" y="815" width="90" height="30" as="geometry"/>
                </mxCell>
                <mxCell id="-bhdE2tVJ8x3mW5nTVf4-24" value="LinkedIn&lt;span style=&quot;color: rgba(0 , 0 , 0 , 0) ; font-family: monospace ; font-size: 0px&quot;&gt;%3CmxGraphModel%3E%3Croot%3E%3CmxCell%20id%3D%220%22%2F%3E%3CmxCell%20id%3D%221%22%20parent%3D%220%22%2F%3E%3CmxCell%20id%3D%222%22%20value%3D%22Resume%22%20style%3D%22rounded%3D0%3BwhiteSpace%3Dwrap%3Bhtml%3D1%3BfontSize%3D20%3BstrokeColor%3D%23000000%3B%22%20vertex%3D%221%22%20parent%3D%221%22%3E%3CmxGeometry%20x%3D%22545%22%20y%3D%22815%22%20width%3D%2290%22%20height%3D%2230%22%20as%3D%22geometry%22%2F%3E%3C%2FmxCell%3E%3C%2Froot%3E%3C%2FmxGraphModel%3E&lt;/span&gt;" style="rounded=0;whiteSpace=wrap;html=1;fontSize=20;strokeColor=#FFFFFF;fillColor=none;" parent="1" vertex="1">
                    <mxGeometry x="797.5" y="815" width="90" height="30" as="geometry"/>
                </mxCell>
                <mxCell id="-bhdE2tVJ8x3mW5nTVf4-25" value="GitHub" style="rounded=0;whiteSpace=wrap;html=1;fontSize=20;strokeColor=#FFFFFF;fillColor=none;" parent="1" vertex="1">
                    <mxGeometry x="957.5" y="815" width="90" height="30" as="geometry"/>
                </mxCell>
                <mxCell id="-bhdE2tVJ8x3mW5nTVf4-26" value="Spotify" style="rounded=0;whiteSpace=wrap;html=1;fontSize=20;strokeColor=#FFFFFF;fillColor=none;" parent="1" vertex="1">
                    <mxGeometry x="1117.5" y="815" width="90" height="30" as="geometry"/>
                </mxCell>
                <mxCell id="-bhdE2tVJ8x3mW5nTVf4-27" value="Title" style="rounded=0;whiteSpace=wrap;html=1;fontSize=20;strokeColor=#FFFFFF;fillColor=none;" parent="1" vertex="1">
                    <mxGeometry x="460" y="480" width="120" height="40" as="geometry"/>
                </mxCell>
                <mxCell id="-bhdE2tVJ8x3mW5nTVf4-28" value="Title" style="rounded=0;whiteSpace=wrap;html=1;fontSize=20;strokeColor=#FFFFFF;fillColor=none;" parent="1" vertex="1">
                    <mxGeometry x="460" y="595" width="120" height="40" as="geometry"/>
                </mxCell>
                <mxCell id="-bhdE2tVJ8x3mW5nTVf4-29" value="Title" style="rounded=0;whiteSpace=wrap;html=1;fontSize=20;strokeColor=#FFFFFF;fillColor=none;" parent="1" vertex="1">
                    <mxGeometry x="460" y="710" width="120" height="40" as="geometry"/>
                </mxCell>
                <mxCell id="-bhdE2tVJ8x3mW5nTVf4-30" value="Title" style="rounded=0;whiteSpace=wrap;html=1;fontSize=20;strokeColor=#FFFFFF;fillColor=none;" parent="1" vertex="1">
                    <mxGeometry x="860" y="595" width="120" height="40" as="geometry"/>
                </mxCell>
                <mxCell id="-bhdE2tVJ8x3mW5nTVf4-31" value="Title" style="rounded=0;whiteSpace=wrap;html=1;fontSize=20;strokeColor=#FFFFFF;fillColor=none;" parent="1" vertex="1">
                    <mxGeometry x="860" y="710" width="120" height="40" as="geometry"/>
                </mxCell>
            </root>
        </mxGraphModel>
    </diagram>
</mxfile>